<?xml version="1.0" encoding="UTF-8"?>
<!DOCTYPE svg PUBLIC "-//W3C//DTD SVG 1.1//EN" "http://www.w3.org/Graphics/SVG/1.1/DTD/svg11.dtd">

<svg xmlns="http://www.w3.org/2000/svg" xml:space="preserve" width="105px" height="101px" version="1.1" style="shape-rendering:geometricPrecision; text-rendering:geometricPrecision; image-rendering:optimizeQuality; fill-rule:evenodd; clip-rule:evenodd"
viewBox="0 0 43.33 41.9"
 xmlns:xlink="http://www.w3.org/1999/xlink"
 xmlns:xodm="http://www.corel.com/coreldraw/odm/2003">
 <defs>
  <style type="text/css">
   <![CDATA[
    .fil0 {fill:white}
    .fil2 {fill:#003399;fill-rule:nonzero}
    .fil3 {fill:red;fill-rule:nonzero}
    .fil1 {fill:white;fill-rule:nonzero}
   ]]>
  </style>
 </defs>
 <g id="Camada_x0020_1">
  <metadata id="CorelCorpID_0Corel-Layer"/>
  <g id="_1745157436960">
   <path class="fil0" d="M35.09 9.62c0.6,-0.65 1.41,-0.98 2.32,-0.93 0.91,0.06 1.76,0.42 2.5,0.91 0.59,0.39 1.11,0.9 1.36,1.55 0.32,0.84 0.07,1.68 -0.37,2.42 -0.2,0.35 -0.4,0.69 -0.61,1.03 1.97,2.86 3.04,6.22 3.04,9.7 0,4.69 -1.93,9.14 -5.38,12.45 -3.45,3.31 -8.09,5.15 -12.97,5.15 -4.89,0 -9.53,-1.84 -12.98,-5.15 -3.45,-3.31 -5.37,-7.76 -5.37,-12.45 0,-3.47 1.05,-6.82 3.02,-9.68l-0.15 0.14 -9.5 -9.11 5.89 -5.65 9.51 9.11 -0.52 0.49c2.99,-1.89 6.48,-2.89 10.1,-2.89 3.63,0 7.13,1.02 10.11,2.91z"/>
   <g>
    <g>
     <path class="fil1" d="M34.64 15.04c-2.47,-2.38 -5.89,-3.84 -9.66,-3.84 -3.78,0 -7.2,1.47 -9.67,3.84 -2.47,2.37 -4,5.64 -4,9.26 0,3.62 1.53,6.9 4,9.27 2.47,2.37 5.89,3.84 9.67,3.84 3.77,0 7.19,-1.47 9.66,-3.84 2.47,-2.37 4,-5.65 4,-9.27 0,-3.62 -1.53,-6.89 -4,-9.26z"/>
     <path class="fil2" d="M24.98 8.1c4.66,0 8.89,1.81 11.95,4.75 3.05,2.93 4.94,6.98 4.94,11.45 0,4.48 -1.89,8.53 -4.94,11.46 -3.06,2.94 -7.29,4.75 -11.95,4.75 -4.67,0 -8.89,-1.81 -11.95,-4.75 -3.06,-2.93 -4.95,-6.98 -4.95,-11.46 0,-4.04 1.54,-7.74 4.1,-10.58l-1.82 -1.74 -0.86 0.81 -7.45 -7.14 3.84 -3.68 7.45 7.14 -0.85 0.82 1.85 1.78c2.91,-2.26 6.61,-3.61 10.64,-3.61zm9.66 6.94c-2.47,-2.38 -5.89,-3.84 -9.66,-3.84 -3.78,0 -7.2,1.47 -9.67,3.84 -2.47,2.37 -4,5.64 -4,9.26 0,3.62 1.53,6.9 4,9.27 2.47,2.37 5.89,3.84 9.67,3.84 3.77,0 7.19,-1.47 9.66,-3.84 2.47,-2.37 4,-5.65 4,-9.27 0,-3.62 -1.53,-6.89 -4,-9.26z"/>
    </g>
    <path class="fil3" d="M23.55 20.07l0.75 -0.09c1.82,-0.17 3.26,-0.3 4.35,-0.41 1.13,-0.11 1.97,-0.18 2.52,-0.23 1.46,-2.74 1.75,-3.73 2.84,-5.45 1.29,-2.03 1.99,-3.16 2.14,-3.32 0.32,-0.35 0.7,-0.51 1.17,-0.49 0.57,0.04 1.17,0.27 1.77,0.67 0.41,0.27 0.69,0.57 0.82,0.89 0.12,0.33 0.02,0.75 -0.27,1.26 -0.07,0.11 -0.56,0.96 -1.55,2.46 -1.69,2.57 -1.82,3.05 -2.33,3.95 2.15,0.36 3.39,0.96 3.72,1.8 0.12,0.3 0.07,0.56 -0.11,0.78 -0.26,0.22 -0.59,0.33 -1.03,0.3 -0.28,-0.01 -0.78,-0.1 -1.51,-0.26 -0.53,-0.1 -1.1,-0.17 -1.73,-0.21 -0.17,-0.01 -0.39,-0.03 -0.68,-0.04 -0.46,0.91 -1.04,2.33 -1.74,4.29 2.32,0.34 3.64,0.93 3.97,1.78 0.12,0.3 0.07,0.56 -0.13,0.77 -0.24,0.23 -0.59,0.33 -1.02,0.3 -0.28,-0.01 -0.8,-0.1 -1.53,-0.25 -0.53,-0.11 -1.05,-0.17 -1.56,-0.2 -0.15,-0.01 -0.4,-0.03 -0.74,-0.06 -0.48,1.09 -1.01,2.26 -1.58,3.51 -0.8,1.77 -0.44,1.94 -1.25,3.68l-0.2 0.44c-0.28,0.58 -0.4,0.98 -0.52,1.1 -0.13,0.13 -0.39,0.17 -0.77,0.15 -0.48,-0.03 -1.03,-0.23 -1.63,-0.63 -0.38,-0.25 -0.61,-0.52 -0.71,-0.78 -0.26,-0.65 -0.09,-1.86 1.97,-7.24 -0.44,0.05 -1.01,0.1 -1.69,0.17 -0.95,0.1 -2.29,0.22 -4.02,0.34 -0.35,0.03 -0.9,0.08 -1.66,0.14 -0.27,0.59 -0.59,1.24 -0.92,1.95 -0.78,1.69 -0.41,1.87 -1.26,3.66l-0.2 0.44c-0.27,0.58 -0.39,0.98 -0.52,1.1 -0.13,0.13 -0.39,0.17 -0.77,0.15 -0.48,-0.03 -1.02,-0.24 -1.62,-0.63 -0.37,-0.23 -0.61,-0.5 -0.72,-0.77 -0.22,-0.59 -0.22,-1.32 1.52,-5.81 -0.45,0.02 -0.9,0.01 -1.34,-0.02 -2.06,-0.12 -3.24,-0.59 -3.55,-1.39 -0.17,-0.45 -0.04,-0.8 0.39,-1.05 0.37,-0.23 0.81,-0.32 1.33,-0.29 0.24,0.01 0.55,0.05 0.97,0.11 0.75,0.12 1.41,0.19 1.99,0.23 0.21,0.01 0.56,0.03 1.08,0.06 0.52,-1.28 1.14,-2.71 1.85,-4.28 -0.68,-0.04 -1.07,-0.06 -1.19,-0.07 -2.09,-0.12 -3.29,-0.58 -3.59,-1.36 -0.17,-0.44 -0.04,-0.79 0.41,-1.04 0.37,-0.22 0.82,-0.31 1.35,-0.28 0.23,0.01 0.56,0.05 0.98,0.11 0.72,0.12 1.37,0.19 1.96,0.23 0.29,0.02 0.71,0.03 1.26,0.05 1.71,-3.48 2.22,-5.06 3.54,-7.13 1.3,-2.03 2.02,-3.14 2.18,-3.32 0.32,-0.34 0.69,-0.51 1.12,-0.48 0.6,0.03 1.23,0.26 1.86,0.66 0.38,0.25 0.63,0.54 0.76,0.85 0.13,0.36 0.03,0.79 -0.26,1.3 -0.06,0.11 -0.55,0.97 -1.54,2.47 -1.91,2.91 -2.32,3.89 -3.13,5.43zm-1.29 2.47c-0.15,0.41 -0.39,1.08 -0.72,2.01 -0.25,0.65 -0.53,1.36 -0.83,2.13 2.35,-0.23 4.06,-0.39 5.09,-0.49 0.78,-0.07 1.53,-0.14 2.25,-0.22 0.55,-1.25 1.16,-2.59 1.85,-4.05l-0.81 0.08c-1.52,0.17 -3.17,0.31 -4.92,0.43 -0.38,0.01 -1.02,0.05 -1.91,0.11z"/>
   </g>
  </g>
 </g>
</svg>
